<svg width="607" height="102" viewBox="0 0 607 102" fill="none" xmlns="http://www.w3.org/2000/svg">
<path d="M1.85773e-06 18.6552C2.03463e-06 10.5613 6.56135 4 14.6552 4L70.3448 4C78.4387 4 85 10.5613 85 18.6552V21.5862C85 29.68 78.4387 36.2414 70.3448 36.2414L14.6552 36.2414C6.56134 36.2414 1.61678e-06 29.68 1.79367e-06 21.5862L1.85773e-06 18.6552Z" fill="#0075FF"/>
<path d="M70.3448 4C78.4387 4 85 10.5613 85 18.6552V74.3448C85 82.4387 78.4387 89 70.3448 89H67.4138C59.32 89 52.7586 82.4387 52.7586 74.3448L52.7586 18.6552C52.7586 10.5613 59.32 4 67.4138 4L70.3448 4Z" fill="#0075FF"/>
<path d="M73.2759 4C79.7509 4 85 9.24908 85 15.7241V24.5172C85 30.9923 79.7509 36.2414 73.2759 36.2414H52.7586V15.7241C52.7586 9.24908 58.0077 4 64.4828 4L73.2759 4Z" fill="#7DB0EB"/>
<path d="M38.1034 50.8966V74.3448C38.1034 82.4387 31.5421 89 23.4483 89H14.6552C6.56134 89 -1.76896e-07 82.4387 0 74.3448L1.92179e-07 65.5517C3.69075e-07 57.4579 6.56135 50.8966 14.6552 50.8966H38.1034Z" fill="#FF8C93"/>
<path d="M171.928 89.4272L155.09 65.339C154.383 65.4174 153.324 65.4566 151.911 65.4566H133.307V89.4272H118V7.17503H151.911C159.054 7.17503 165.255 8.35006 170.515 10.7001C175.852 13.0502 179.934 16.4186 182.76 20.8054C185.586 25.1922 186.999 30.4015 186.999 36.4333C186.999 42.6218 185.468 47.9486 182.407 52.4137C179.424 56.8788 175.107 60.2081 169.455 62.4015L188.412 89.4272H171.928ZM171.574 36.4333C171.574 31.1848 169.847 27.1506 166.393 24.3305C162.94 21.5104 157.877 20.1004 151.204 20.1004H133.307V52.8837H151.204C157.877 52.8837 162.94 51.4737 166.393 48.6536C169.847 45.7552 171.574 41.6818 171.574 36.4333Z" fill="white"/>
<path d="M242.627 90.6022C234.228 90.6022 226.653 88.8005 219.902 85.1971C213.152 81.5153 207.853 76.4627 204.007 70.0392C200.16 63.5373 198.237 56.2913 198.237 48.3011C198.237 40.3109 200.16 33.104 204.007 26.6805C207.853 20.1787 213.152 15.1261 219.902 11.5226C226.653 7.84088 234.228 6 242.627 6C251.027 6 258.601 7.84088 265.352 11.5226C272.103 15.1261 277.402 20.1395 281.248 26.563C285.094 32.9865 287.017 40.2326 287.017 48.3011C287.017 56.3697 285.094 63.6157 281.248 70.0392C277.402 76.4627 272.103 81.5153 265.352 85.1971C258.601 88.8005 251.027 90.6022 242.627 90.6022ZM242.627 77.2069C248.122 77.2069 253.067 75.9927 257.463 73.5643C261.859 71.0575 265.313 67.6108 267.825 63.224C270.337 58.7589 271.593 53.7846 271.593 48.3011C271.593 42.8176 270.337 37.8825 267.825 33.4957C265.313 29.0306 261.859 25.5838 257.463 23.1555C253.067 20.6487 248.122 19.3954 242.627 19.3954C237.133 19.3954 232.187 20.6487 227.791 23.1555C223.396 25.5838 219.942 29.0306 217.43 33.4957C214.918 37.8825 213.662 42.8176 213.662 48.3011C213.662 53.7846 214.918 58.7589 217.43 63.224C219.942 67.6108 223.396 71.0575 227.791 73.5643C232.187 75.9927 237.133 77.2069 242.627 77.2069Z" fill="white"/>
<path d="M341.745 90.6022C333.346 90.6022 325.771 88.8005 319.02 85.1971C312.27 81.5153 306.971 76.4627 303.125 70.0392C299.278 63.5373 297.355 56.2913 297.355 48.3011C297.355 40.3109 299.278 33.104 303.125 26.6805C306.971 20.1787 312.27 15.1261 319.02 11.5226C325.771 7.84088 333.346 6 341.745 6C350.144 6 357.719 7.84088 364.47 11.5226C371.221 15.1261 376.519 20.1395 380.366 26.563C384.212 32.9865 386.135 40.2326 386.135 48.3011C386.135 56.3697 384.212 63.6157 380.366 70.0392C376.519 76.4627 371.221 81.5153 364.47 85.1971C357.719 88.8005 350.144 90.6022 341.745 90.6022ZM341.745 77.2069C347.24 77.2069 352.185 75.9927 356.581 73.5643C360.977 71.0575 364.431 67.6108 366.943 63.224C369.455 58.7589 370.711 53.7846 370.711 48.3011C370.711 42.8176 369.455 37.8825 366.943 33.4957C364.431 29.0306 360.977 25.5838 356.581 23.1555C352.185 20.6487 347.24 19.3954 341.745 19.3954C336.25 19.3954 331.305 20.6487 326.909 23.1555C322.513 25.5838 319.06 29.0306 316.548 33.4957C314.036 37.8825 312.78 42.8176 312.78 48.3011C312.78 53.7846 314.036 58.7589 316.548 63.224C319.06 67.6108 322.513 71.0575 326.909 73.5643C331.305 75.9927 336.25 77.2069 341.745 77.2069Z" fill="white"/>
<path d="M458.435 27.6206C450.664 23.2338 442.578 20.5704 434.179 19.6304V89.4272H418.872V19.6304C410.395 20.5704 402.27 23.2338 394.499 27.6206L389.2 15.8703C394.695 12.5802 400.583 10.1126 406.862 8.46757C413.221 6.82252 419.736 6 426.408 6C433.08 6 439.596 6.82252 445.954 8.46757C452.312 10.1126 458.239 12.5802 463.733 15.8703L458.435 27.6206Z" fill="white"/>
<path d="M545 7.17503V64.2815C545 76.4235 541.664 85.7454 534.992 92.2472C528.398 98.7491 519.253 102 507.557 102C500.649 102 494.369 100.982 488.718 98.9449C483.066 96.9865 478.277 94.1665 474.353 90.4847L480.593 78.7344C487.893 85.3146 496.803 88.6047 507.321 88.6047C522.236 88.6047 529.693 80.732 529.693 64.9865V58.7589C524.12 65.8091 516.035 69.3342 505.437 69.3342C494.997 69.3342 486.912 66.3574 481.182 60.4039C475.452 54.4504 472.586 45.9119 472.586 34.7882V7.17503H487.893V34.0832C487.893 41.2901 489.62 46.7736 493.074 50.5337C496.607 54.2154 501.513 56.0563 507.792 56.0563C514.465 56.0563 519.763 54.0979 523.688 50.1812C527.691 46.186 529.693 40.3109 529.693 32.5557V7.17503H545Z" fill="white"/>
<path d="M587.073 37.4L583.953 29.4H570.993L567.873 37.32L564.633 36L575.593 9H579.753L590.553 36L587.073 37.4ZM572.193 26.2H582.713L577.473 12.76L572.193 26.2ZM599.352 37V9H603.152V37H599.352Z" fill="white"/>
</svg>
